<svg version="1.1" id="Layer_1" xmlns="http://www.w3.org/2000/svg" xmlns:xlink="http://www.w3.org/1999/xlink" x="0px" y="0px"
	 width="100%" viewBox="0 0 506 428" enable-background="new 0 0 506 428" xml:space="preserve">
<path fill="#FEFFFE" opacity="1.000000" stroke="none" 
	d="
M299.000000,429.000000 
	C199.333328,429.000000 100.166664,429.000000 1.000000,429.000000 
	C1.000000,286.333344 1.000000,143.666672 1.000000,1.000000 
	C169.666672,1.000000 338.333344,1.000000 507.000000,1.000000 
	C507.000000,143.666672 507.000000,286.333344 507.000000,429.000000 
	C437.833344,429.000000 368.666656,429.000000 299.000000,429.000000 
M87.125694,341.006042 
	C86.357742,341.622986 85.401375,342.105194 84.849571,342.876740 
	C72.871468,359.625214 68.505440,378.636261 69.143768,398.829529 
	C69.414001,407.378479 81.005371,415.187408 89.214706,413.355652 
	C99.304077,411.104431 111.251953,398.409912 113.542862,388.267456 
	C114.231224,388.615631 114.919586,388.963806 115.730415,389.818024 
	C115.730377,390.164154 115.730339,390.510284 115.429764,391.118988 
	C115.570992,391.449768 115.712212,391.780579 115.950272,393.030060 
	C115.950272,402.281006 115.950272,411.531921 115.950272,420.733032 
	C243.322357,420.733032 369.988495,420.733032 496.711060,420.733032 
	C496.711060,395.059723 496.711060,369.674133 496.711060,343.847748 
	C478.952789,343.847748 461.495758,343.847748 443.680664,343.281738 
	C438.190674,331.118256 426.711731,325.145538 416.740906,317.776428 
	C412.127350,314.366669 406.362854,312.514221 401.087402,309.065674 
	C398.876373,293.655670 397.205566,278.143738 394.320862,262.860901 
	C390.509338,242.668091 385.829712,222.636261 381.341766,202.575836 
	C380.009186,196.619431 378.872864,190.408813 376.249084,184.991592 
	C368.787048,169.585129 360.672516,154.491348 352.615875,139.380585 
	C351.640564,137.551315 349.446320,136.371948 348.102264,134.271805 
	C357.769257,127.562935 367.449707,120.873383 377.097168,114.136505 
	C381.511810,111.053696 384.180023,104.137085 382.660736,99.199219 
	C380.997375,93.793022 376.256897,92.650871 371.551208,92.482841 
	C361.545776,92.125572 351.699677,93.188980 342.739319,96.956184 
	C346.745056,90.639671 346.607910,83.827728 345.170410,76.848167 
	C343.208832,67.324310 337.953247,63.137524 328.209229,62.947422 
	C316.529266,62.719543 307.395081,68.539429 298.468048,74.993431 
	C297.031738,76.031845 295.529510,76.979095 293.889435,77.272911 
	C291.203735,74.008369 289.109192,69.806786 285.714874,67.665565 
	C277.509003,62.489063 268.904724,58.549591 258.910583,56.632908 
	C233.259415,51.713509 207.944397,45.064655 182.402878,39.532505 
	C176.514236,38.257057 170.258545,38.461681 164.167480,38.398495 
	C158.587784,38.340611 154.230179,40.939781 150.315536,45.051208 
	C143.677551,52.022858 136.659912,58.650562 129.567703,65.168015 
	C119.188377,74.706177 108.310707,83.719612 98.214325,93.541481 
	C92.204803,99.387604 86.362366,105.784019 84.289795,114.546822 
	C82.782204,113.842087 81.308083,113.051888 79.761642,112.446381 
	C69.021835,108.241150 53.147980,114.518730 50.083447,125.617844 
	C48.326057,131.982727 49.646152,139.376846 50.441235,146.207443 
	C51.026867,151.238708 54.482319,154.733688 59.324715,156.821091 
	C61.197353,157.628326 62.677975,159.344986 63.482910,160.682892 
	C61.142750,161.428726 58.740330,162.022156 56.473682,162.947983 
	C48.555229,166.182343 41.352245,170.414902 36.592697,177.881973 
	C32.371765,184.504044 34.098854,189.666229 41.475494,192.177078 
	C43.658421,192.920135 45.908123,193.790894 48.168064,193.927460 
	C57.733677,194.505600 67.314674,194.829178 76.574692,195.928116 
	C75.831932,199.141205 74.872971,202.321930 74.386269,205.573349 
	C72.819794,216.038376 70.618874,226.493118 70.145607,237.018509 
	C69.302536,255.768143 69.374084,274.558624 75.159233,292.806396 
	C80.121185,308.457581 84.800140,324.198486 88.899376,340.057892 
	C88.531952,340.339783 88.164528,340.621674 87.125694,341.006042 
z"/>
<path fill="#63CFE4" opacity="1.000000" stroke="none" 
	d="
M347.816986,134.891388 
	C349.446320,136.371948 351.640564,137.551315 352.615875,139.380585 
	C360.672516,154.491348 368.787048,169.585129 376.249084,184.991592 
	C378.872864,190.408813 380.009186,196.619431 381.341766,202.575836 
	C385.829712,222.636261 390.509338,242.668091 394.320862,262.860901 
	C397.205566,278.143738 398.876373,293.655670 400.668640,309.554932 
	C394.751373,310.080261 389.416809,310.947876 386.162689,315.903839 
	C380.665558,324.275818 380.227295,333.133423 385.404419,342.676544 
	C382.936951,342.793274 381.180786,342.948181 379.424591,342.948792 
	C343.620117,342.961639 307.815613,342.972534 272.011139,342.944733 
	C262.855652,342.937622 253.700272,342.796967 244.429108,342.368286 
	C243.810638,336.820099 243.307907,331.621277 243.404266,326.508575 
	C255.163910,327.902832 265.304138,327.591797 271.825989,315.810791 
	C277.522339,305.520996 271.298798,286.976379 259.999878,283.303986 
	C259.532715,283.152130 259.021942,283.026703 258.538666,283.048523 
	C252.111252,283.338562 245.685120,283.657135 239.165512,283.584595 
	C237.956467,275.935425 232.005737,270.617554 224.019669,268.867004 
	C214.758804,266.837097 207.104126,271.031738 199.590469,274.970551 
	C191.062332,279.441162 186.866287,286.805420 188.040543,296.842896 
	C164.618256,297.912537 158.505676,321.479462 166.912659,334.484222 
	C168.726135,337.289459 171.311401,339.595764 174.003647,342.657898 
	C171.707596,342.758270 169.956940,342.899780 168.206177,342.901184 
	C152.918045,342.913452 137.629745,342.869202 122.341965,342.940002 
	C120.654381,342.947815 118.969643,343.571045 116.962029,344.081604 
	C116.434296,344.383545 116.228111,344.512787 115.661194,344.724762 
	C115.044395,357.963257 114.788330,371.119049 114.532265,384.274811 
	C113.908249,384.416077 113.284233,384.557312 112.660217,384.698578 
	C106.064148,370.583954 99.506401,356.451080 92.797150,342.390472 
	C92.277046,341.300537 90.693512,340.718048 89.604248,339.899719 
	C84.800140,324.198486 80.121185,308.457581 75.159233,292.806396 
	C69.374084,274.558624 69.302536,255.768143 70.145607,237.018509 
	C70.618874,226.493118 72.819794,216.038376 74.386269,205.573349 
	C74.872971,202.321930 75.831932,199.141205 77.200600,195.501648 
	C81.267334,195.061829 84.708260,195.025711 88.148972,195.039780 
	C95.638428,195.070389 96.332985,194.351974 96.306915,186.751923 
	C104.539268,183.144089 112.467087,183.326920 120.186989,186.850662 
	C124.659767,188.892242 129.363510,190.982025 133.028503,194.136292 
	C144.486160,203.997299 157.691177,207.210297 172.346222,205.961411 
	C176.607574,205.598267 180.624756,204.707901 182.469818,199.758255 
	C188.969620,199.095612 195.299957,199.177261 201.281662,197.773422 
	C204.869293,196.931427 207.912384,193.769180 211.557648,191.754669 
	C214.655975,192.937515 217.399689,194.938858 220.137253,194.930466 
	C230.886734,194.897568 240.120117,191.160233 247.231674,182.610962 
	C251.893539,177.006607 257.062347,171.823944 262.125244,166.813309 
	C264.439972,170.893112 267.547180,172.100754 271.559814,170.373413 
	C276.718018,168.152908 281.868103,165.906067 286.952820,163.523529 
	C307.255371,154.010468 327.531219,144.440369 347.816986,134.891388 
M245.179459,196.658356 
	C233.471420,207.815140 229.440094,221.676758 232.755325,237.101868 
	C237.806290,260.603149 259.358826,274.520721 282.959747,269.925964 
	C299.294708,266.745819 310.231689,256.855347 315.487549,241.014526 
	C320.653351,225.444885 317.164856,211.441360 306.568970,199.358215 
	C291.565552,182.248856 264.379944,179.673019 245.179459,196.658356 
M104.395050,236.968536 
	C92.157875,259.235382 99.787285,284.634491 122.627693,295.632019 
	C139.264343,303.642517 156.573517,300.108643 168.854233,288.187775 
	C187.631653,269.960571 185.381241,241.208755 165.987213,225.336288 
	C147.503128,210.208527 116.597916,215.463699 104.395050,236.968536 
z"/>
<path fill="#F60505" opacity="1.000000" stroke="none" 
	d="
M116.021919,344.642059 
	C116.228111,344.512787 116.434296,344.383545 117.387634,344.196411 
	C146.259445,344.073944 174.384079,344.009399 202.908325,343.991241 
	C204.111633,343.916870 204.915329,343.796112 206.126160,343.789398 
	C211.347549,343.811462 216.161819,343.719421 221.333038,343.773010 
	C222.687103,343.814575 223.684174,343.710541 225.145905,343.763428 
	C230.660858,343.794495 235.711182,343.668610 241.069397,343.692688 
	C242.513626,343.915894 243.649933,343.989105 245.268097,344.078003 
	C271.059235,344.097656 296.368561,344.134338 321.677765,344.098206 
	C362.464783,344.039948 403.251770,343.933716 444.038757,343.847748 
	C461.495758,343.847748 478.952789,343.847748 496.711060,343.847748 
	C496.711060,369.674133 496.711060,395.059723 496.711060,420.733032 
	C369.988495,420.733032 243.322357,420.733032 115.950272,420.733032 
	C115.950272,411.531921 115.950272,402.281006 115.982834,392.245636 
	C115.920364,391.259613 115.825333,391.058014 115.730301,390.856415 
	C115.730339,390.510284 115.730377,390.164154 115.848587,389.096832 
	C115.985138,373.797791 116.003532,359.219910 116.021919,344.642059 
M492.544525,406.441803 
	C492.658936,391.699615 492.779572,376.957458 492.856445,362.215088 
	C492.858643,361.792908 492.396240,361.368317 491.802368,360.404510 
	C491.195404,360.341888 490.588409,360.279266 489.192932,360.062286 
	C488.128235,360.120300 487.063507,360.178314 485.494476,360.124207 
	C485.403595,360.416229 485.312744,360.708252 485.038727,361.921539 
	C485.088531,376.614685 485.138306,391.307831 485.096375,406.525299 
	C485.396423,406.622101 485.696503,406.718872 486.662323,406.975708 
	C487.113922,406.927765 487.565552,406.879852 488.767700,407.019470 
	C489.799683,406.990631 490.831665,406.961792 492.544525,406.441803 
M468.755859,406.969452 
	C469.165192,406.920532 469.574554,406.871613 470.778961,406.971436 
	C471.852142,406.919464 472.925293,406.867493 474.526672,406.913635 
	C474.624725,406.609863 474.722748,406.306091 474.987518,405.077942 
	C474.921417,390.393829 474.855316,375.709717 474.718597,360.331116 
	C473.820251,360.278198 472.921936,360.225281 471.357880,360.042023 
	C470.910858,360.094482 470.463806,360.146942 469.429535,360.012207 
	C469.019196,360.031555 468.608826,360.050934 467.499268,360.539612 
	C467.333801,361.171692 467.025269,361.803467 467.023865,362.435944 
	C466.993317,376.238556 466.972778,390.041351 467.043152,403.843658 
	C467.048370,404.866760 467.753845,405.886292 468.755859,406.969452 
M184.024353,381.161530 
	C183.985245,375.882355 180.393631,372.975250 176.086990,372.423401 
	C170.207947,371.670074 164.139252,372.396698 157.867020,372.493225 
	C158.075027,375.523376 158.184784,377.122284 158.293732,378.709290 
	C177.030472,377.976532 177.030472,377.976532 177.728653,383.194275 
	C172.422516,384.188232 167.004883,384.748596 161.885071,386.295013 
	C157.144150,387.726959 155.052963,391.777039 155.036453,396.688690 
	C155.019241,401.810333 157.333221,406.274292 162.170181,407.311523 
	C166.207611,408.177307 170.754990,406.708984 175.068588,406.206207 
	C175.946442,406.103912 176.867966,405.333405 177.632767,405.499603 
	C179.933212,405.999390 182.166199,406.809479 185.110123,407.707367 
	C184.941757,404.684570 184.842575,402.903748 184.922501,400.181305 
	C184.612823,394.098480 184.303162,388.015625 184.024353,381.161530 
M229.467255,408.017517 
	C235.191360,407.865234 240.605331,404.106934 246.927231,407.888245 
	C246.927231,398.589661 247.143768,390.618958 246.850891,382.666992 
	C246.656570,377.390900 242.292313,372.446747 237.331772,372.206238 
	C231.324249,371.914948 225.272736,372.531433 218.998856,372.764038 
	C219.187714,375.530731 219.296005,377.117371 219.435272,379.157562 
	C223.424713,378.507721 226.971802,377.898926 230.529144,377.357361 
	C236.762955,376.408356 240.098328,378.818909 239.436905,383.274719 
	C234.612747,384.169464 229.836105,384.702728 225.273270,385.992432 
	C219.780945,387.544800 216.435989,392.933258 217.101517,398.066772 
	C217.884399,404.105499 222.207352,407.848206 229.467255,408.017517 
M430.355072,402.851929 
	C434.475830,409.469116 442.081573,410.091095 450.158783,405.410980 
	C453.346771,406.214172 455.393768,406.729919 457.993469,407.384888 
	C457.993469,398.101776 458.111450,389.801910 457.946503,381.507721 
	C457.856384,376.976898 454.025787,372.543945 449.291138,372.212738 
	C443.637726,371.817200 437.918793,372.358032 432.252197,372.492676 
	C432.252197,375.345245 432.252197,376.950226 432.252197,378.762512 
	C439.207855,379.046997 447.424347,373.623077 452.714783,383.399658 
	C447.715240,384.009186 443.655731,384.404633 439.628815,385.015381 
	C430.678375,386.372742 426.721710,393.465210 430.355072,402.851929 
M122.004890,389.498657 
	C122.004890,395.261963 122.004890,401.025238 122.004890,407.052917 
	C124.370659,406.935883 126.095322,406.850586 128.163177,406.748322 
	C128.163177,400.985565 128.163177,395.722656 128.163177,389.984589 
	C131.646011,389.984589 134.769104,390.115906 137.877594,389.958710 
	C145.574356,389.569427 151.300110,384.048553 151.926514,376.576050 
	C152.531998,369.353363 148.418716,363.327942 141.038284,362.397034 
	C134.890945,361.621613 128.568024,362.238098 122.437065,362.238098 
	C122.238625,362.945251 122.077980,363.252716 122.076706,363.560822 
	C122.042564,371.873627 122.024773,380.186493 122.004890,389.498657 
M296.132812,405.597198 
	C301.349487,409.207977 307.322845,408.346069 312.948944,407.789276 
	C319.508179,407.140076 320.691101,404.906464 319.084473,399.246124 
	C302.843445,404.997681 296.779572,402.652039 295.714264,389.851746 
	C303.669281,389.851746 311.596954,389.851746 319.461884,389.851746 
	C320.838928,380.433685 317.242523,373.544495 310.461304,372.141876 
	C301.896790,370.370422 294.113525,373.789551 290.720764,380.813721 
	C286.698730,389.140717 288.809387,399.743713 296.132812,405.597198 
M345.786377,406.970551 
	C350.374908,407.316528 354.966858,407.974854 359.551086,407.925201 
	C364.666687,407.869751 369.306915,403.545471 369.950104,398.951508 
	C370.719238,393.457581 368.400513,390.034943 362.196014,388.051971 
	C359.234985,387.105621 356.002930,386.930359 353.139679,385.788788 
	C351.784058,385.248322 350.338776,383.333588 350.177460,381.901428 
	C350.047668,380.749298 351.538574,378.738647 352.757477,378.268768 
	C354.592560,377.561371 356.898956,377.451019 358.859070,377.833954 
	C362.169281,378.480682 365.365295,379.712219 368.623199,380.702057 
	C369.301941,374.097198 368.650177,373.026917 362.392792,372.201691 
	C359.282257,371.791534 356.050354,371.782104 352.926697,372.105957 
	C347.502197,372.668274 343.401733,377.108124 343.068542,382.262726 
	C342.769379,386.891296 345.231323,390.041748 350.781799,391.766541 
	C353.594269,392.640533 356.509827,393.180847 359.374878,393.887726 
	C361.587921,394.433777 363.906860,395.356354 362.960114,398.070526 
	C362.401428,399.672180 360.426422,401.960785 359.147034,401.923553 
	C353.902771,401.770874 348.681061,400.843353 342.521484,400.086823 
	C343.258179,401.991791 344.144318,404.283173 345.786377,406.970551 
M422.164642,373.175446 
	C416.295746,371.572662 410.421967,370.889801 404.802399,373.927643 
	C396.708405,378.303070 395.259003,389.944855 398.024811,397.763275 
	C401.194305,406.722717 409.320251,410.264435 419.454315,407.765381 
	C425.269287,406.331482 425.708740,405.573273 424.409760,399.215637 
	C414.541809,402.883179 409.238037,403.041687 406.367737,399.754852 
	C403.325806,396.271454 402.586517,386.208740 405.631256,381.759979 
	C411.275299,373.513153 418.191864,378.699799 426.300568,381.395905 
	C424.793671,377.894562 423.857880,375.720306 422.164642,373.175446 
M194.735870,406.814758 
	C196.676773,406.814758 198.617661,406.814758 200.939941,406.814758 
	C200.939941,400.831116 200.940308,395.059082 200.939850,389.287048 
	C200.939301,382.439392 203.229111,379.727051 209.889252,379.180359 
	C211.722092,379.029938 213.619125,379.661804 215.604309,379.951904 
	C215.604309,377.421509 215.604309,375.362091 215.604309,372.013397 
	C210.360352,373.363251 205.741806,374.552094 201.138321,375.737091 
	C201.349777,370.493195 197.186096,373.657013 194.124084,372.953369 
	C194.124084,384.275604 194.124084,395.189178 194.735870,406.814758 
M328.065186,387.499573 
	C328.065186,393.919128 328.065186,400.338684 328.065186,406.669861 
	C330.684662,406.669861 332.729095,406.669861 334.587646,406.669861 
	C334.587646,390.944000 334.587646,375.581604 334.587646,360.325500 
	C332.294159,360.325500 330.385559,360.325500 328.064789,360.325500 
	C328.064789,369.281342 328.064789,377.890594 328.065186,387.499573 
M280.953583,402.345795 
	C280.953583,388.295746 280.953583,374.245697 280.953583,360.345764 
	C278.258057,360.345764 276.349518,360.345764 274.375488,360.345764 
	C274.375488,376.069092 274.375488,391.427002 274.375488,407.148895 
	C277.103119,406.207977 281.634033,409.452271 280.953583,402.345795 
M263.247742,406.831360 
	C263.476868,399.927734 263.814850,393.025574 263.907471,386.120117 
	C264.022675,377.535004 263.935120,368.947235 263.935120,360.252197 
	C261.374359,360.252197 259.463318,360.252197 257.295044,360.252197 
	C257.295044,375.888489 257.295044,391.255493 257.295044,406.987488 
	C259.094391,406.987488 260.712585,406.987488 263.247742,406.831360 
z"/>
<path fill="#658B1A" opacity="1.000000" stroke="none" 
	d="
M84.953362,114.718063 
	C86.362366,105.784019 92.204803,99.387604 98.214325,93.541481 
	C108.310707,83.719612 119.188377,74.706177 129.567703,65.168015 
	C136.659912,58.650562 143.677551,52.022858 150.315536,45.051208 
	C154.230179,40.939781 158.587784,38.340611 164.167480,38.398495 
	C170.258545,38.461681 176.514236,38.257057 182.402878,39.532505 
	C207.944397,45.064655 233.259415,51.713509 258.910583,56.632908 
	C268.904724,58.549591 277.509003,62.489063 285.714874,67.665565 
	C289.109192,69.806786 291.203735,74.008369 293.876007,77.966599 
	C291.526123,82.066269 289.189667,85.472252 286.505798,88.902206 
	C273.496307,94.573433 260.938049,100.470413 248.140381,105.791473 
	C237.278137,110.307831 226.202972,114.340157 215.100525,118.240837 
	C207.793564,120.808037 200.380096,124.112556 192.823380,124.722977 
	C174.122635,126.233589 155.312683,126.399918 136.545593,127.078354 
	C124.116257,127.527687 111.685165,127.928535 98.972275,128.128677 
	C94.110916,123.510193 89.532135,119.114128 84.953362,114.718063 
z"/>
<path fill="#648A1D" opacity="1.000000" stroke="none" 
	d="
M95.944252,186.855286 
	C96.332985,194.351974 95.638428,195.070389 88.148972,195.039780 
	C84.708260,195.025711 81.267334,195.061829 77.358276,195.160492 
	C67.314674,194.829178 57.733677,194.505600 48.168064,193.927460 
	C45.908123,193.790894 43.658421,192.920135 41.475494,192.177078 
	C34.098854,189.666229 32.371765,184.504044 36.592697,177.881973 
	C41.352245,170.414902 48.555229,166.182343 56.473682,162.947983 
	C58.740330,162.022156 61.142750,161.428726 64.219635,160.819229 
	C68.468712,163.153702 70.244293,169.053726 69.411896,173.873505 
	C69.018623,176.150650 69.303238,180.528732 69.958061,180.663498 
	C72.975449,181.284470 76.275444,181.009979 79.380005,180.492355 
	C80.606697,180.287811 81.532478,178.545456 82.691254,177.624008 
	C91.069420,170.961533 99.472183,164.329987 108.219788,157.821762 
	C110.785728,159.579605 112.786957,161.965347 115.260902,162.654755 
	C119.197868,163.751877 123.440521,163.963013 127.570305,164.121750 
	C148.563629,164.928665 169.439728,164.162231 190.047302,159.478531 
	C218.615601,152.985519 246.451141,144.322769 273.514343,132.021942 
	C275.055908,131.907928 276.179047,131.804550 277.147217,131.735352 
	C276.992249,131.769531 277.293823,131.669754 277.224609,132.062820 
	C277.994263,135.487961 279.675903,136.988571 283.129059,137.128891 
	C293.186218,137.537582 303.225800,138.368500 313.276154,138.968903 
	C314.401520,139.036118 315.568176,138.762314 316.687561,138.517776 
	C321.472961,137.472397 326.223572,136.238647 331.044098,135.404282 
	C332.202026,135.203857 333.579407,136.271179 334.855865,136.755463 
	C334.915253,137.232269 334.974609,137.709076 335.033997,138.185883 
	C312.884705,149.181320 290.567291,159.813736 266.025452,168.772812 
	C266.234863,166.819458 266.203613,165.238449 266.607056,163.777466 
	C267.244324,161.469910 268.173157,159.242874 269.114868,156.680405 
	C270.527588,154.585297 271.804047,152.791534 273.399078,150.963562 
	C274.183502,150.525528 274.649323,150.121704 275.278198,149.424591 
	C277.930847,145.218155 277.227936,142.156036 272.806183,139.762665 
	C271.397156,139.666443 270.196930,139.837158 268.707001,140.187546 
	C267.695709,141.008896 266.869751,141.565643 266.268097,142.304916 
	C256.243286,154.621902 246.701431,167.380341 235.968536,179.043396 
	C232.715958,182.577850 226.292328,183.611008 221.092957,184.681717 
	C219.543945,185.000717 217.150314,181.623428 215.267212,179.811295 
	C212.967484,177.598221 210.512253,177.267014 208.215820,179.435959 
	C205.864868,181.656387 205.538223,184.200165 207.926361,186.864655 
	C209.205246,188.291550 210.120728,190.044159 211.200211,191.649765 
	C207.912384,193.769180 204.869293,196.931427 201.281662,197.773422 
	C195.299957,199.177261 188.969620,199.095612 182.400177,199.407867 
	C180.843826,195.806046 179.462021,193.098755 174.909973,194.508026 
	C165.093933,197.547028 155.603745,196.519470 146.766373,191.198547 
	C139.108246,186.587616 131.590988,181.742691 123.942215,176.631561 
	C120.757645,175.553818 117.642319,174.845718 114.407707,174.197906 
	C114.288414,174.258209 114.047668,174.141983 113.789124,173.826447 
	C110.693100,173.651398 107.855637,173.791870 104.668747,174.030441 
	C101.340034,175.545364 98.199219,176.703049 95.417480,178.436844 
	C90.682434,181.388016 90.967087,184.397995 95.944252,186.855286 
z"/>
<path fill="#64CEE0" opacity="1.000000" stroke="none" 
	d="
M286.853210,88.878235 
	C289.189667,85.472252 291.526123,82.066269 293.960175,78.314392 
	C295.529510,76.979095 297.031738,76.031845 298.468048,74.993431 
	C307.395081,68.539429 316.529266,62.719543 328.209229,62.947422 
	C337.953247,63.137524 343.208832,67.324310 345.170410,76.848167 
	C346.607910,83.827728 346.745056,90.639671 342.423889,97.515594 
	C334.185547,101.773811 333.991547,102.197472 336.616425,109.998207 
	C336.828674,110.628990 337.012817,111.269524 337.199310,111.908653 
	C340.570190,123.463615 334.419128,133.489532 322.434784,134.713348 
	C307.276855,136.261246 291.950836,138.364243 277.293823,131.669754 
	C277.293823,131.669754 276.992249,131.769531 277.081116,131.410080 
	C276.461792,130.522430 275.753632,129.994232 275.063477,129.052994 
	C275.222504,126.186760 274.847626,123.563171 275.592010,121.309242 
	C279.180298,110.444275 283.070282,99.678932 286.853210,88.878235 
M309.423889,93.953728 
	C306.378113,99.802475 303.774017,105.706856 306.842499,112.366531 
	C308.088348,111.192429 308.564178,109.878036 308.679291,108.532776 
	C309.722107,96.351173 309.703644,96.349594 321.928040,96.823822 
	C318.914459,94.620575 316.754700,93.041534 313.279144,90.500511 
	C318.241638,88.708595 322.499390,87.171165 326.842743,85.602829 
	C322.348572,82.863129 318.452209,84.419174 314.994324,87.333199 
	C312.992462,89.020203 311.482758,91.291222 309.423889,93.953728 
z"/>
<path fill="#65CEDE" opacity="1.000000" stroke="none" 
	d="
M107.867157,157.688644 
	C99.472183,164.329987 91.069420,170.961533 82.691254,177.624008 
	C81.532478,178.545456 80.606697,180.287811 79.380005,180.492355 
	C76.275444,181.009979 72.975449,181.284470 69.958061,180.663498 
	C69.303238,180.528732 69.018623,176.150650 69.411896,173.873505 
	C70.244293,169.053726 68.468712,163.153702 64.646774,160.801453 
	C62.677975,159.344986 61.197353,157.628326 59.324715,156.821091 
	C54.482319,154.733688 51.026867,151.238708 50.441235,146.207443 
	C49.646152,139.376846 48.326057,131.982727 50.083447,125.617844 
	C53.147980,114.518730 69.021835,108.241150 79.761642,112.446381 
	C81.308083,113.051888 82.782204,113.842087 84.621582,114.632446 
	C89.532135,119.114128 94.110916,123.510193 99.067719,128.425323 
	C104.066025,137.994614 109.195534,146.895615 107.867157,157.688644 
M83.525131,139.998825 
	C80.483421,134.660797 74.767014,134.161041 69.728195,132.591339 
	C68.439102,132.189758 66.714867,132.940704 65.288307,133.440948 
	C65.018890,133.535416 64.941856,135.515961 65.237640,135.656799 
	C66.632217,136.320816 68.160889,136.834335 69.691406,137.051605 
	C72.100967,137.393631 74.550308,137.455414 77.276505,137.657639 
	C73.163048,149.203995 73.163048,149.203995 76.178268,151.753708 
	C77.183853,148.165909 78.192047,144.568802 79.200249,140.971695 
	C79.862518,140.933441 80.524796,140.895187 81.187065,140.856934 
	C83.112099,145.718445 85.037132,150.579956 86.962166,155.441467 
	C89.128288,149.421066 86.645927,144.971710 83.525131,139.998825 
z"/>
<path fill="#DFC9A5" opacity="1.000000" stroke="none" 
	d="
M112.985245,388.099640 
	C111.251953,398.409912 99.304077,411.104431 89.214706,413.355652 
	C81.005371,415.187408 69.414001,407.378479 69.143768,398.829529 
	C68.505440,378.636261 72.871468,359.625214 84.849571,342.876740 
	C85.401375,342.105194 86.357742,341.622986 87.807495,341.104889 
	C89.475258,342.425476 90.743790,343.515015 91.389793,344.895782 
	C92.844299,348.004547 93.741653,351.385468 95.306496,354.429047 
	C101.102623,365.702332 107.077507,376.883728 112.985245,388.099640 
z"/>
<path fill="#628C20" opacity="1.000000" stroke="none" 
	d="
M277.224609,132.062820 
	C291.950836,138.364243 307.276855,136.261246 322.434784,134.713348 
	C334.419128,133.489532 340.570190,123.463615 337.199310,111.908653 
	C337.012817,111.269524 336.828674,110.628990 336.616425,109.998207 
	C333.991547,102.197472 334.185547,101.773811 342.332245,97.934937 
	C351.699677,93.188980 361.545776,92.125572 371.551208,92.482841 
	C376.256897,92.650871 380.997375,93.793022 382.660736,99.199219 
	C384.180023,104.137085 381.511810,111.053696 377.097168,114.136505 
	C367.449707,120.873383 357.769257,127.562935 347.959625,134.581589 
	C327.531219,144.440369 307.255371,154.010468 286.952820,163.523529 
	C281.868103,165.906067 276.718018,168.152908 271.559814,170.373413 
	C267.547180,172.100754 264.439972,170.893112 262.248901,166.522842 
	C264.493805,162.908234 266.736176,159.944992 268.978577,156.981750 
	C268.173157,159.242874 267.244324,161.469910 266.607056,163.777466 
	C266.203613,165.238449 266.234863,166.819458 266.025452,168.772812 
	C290.567291,159.813736 312.884705,149.181320 335.033997,138.185883 
	C334.974609,137.709076 334.915253,137.232269 334.855865,136.755463 
	C333.579407,136.271179 332.202026,135.203857 331.044098,135.404282 
	C326.223572,136.238647 321.472961,137.472397 316.687561,138.517776 
	C315.568176,138.762314 314.401520,139.036118 313.276154,138.968903 
	C303.225800,138.368500 293.186218,137.537582 283.129059,137.128891 
	C279.675903,136.988571 277.994263,135.487961 277.224609,132.062820 
z"/>
<path fill="#E0C5A5" opacity="1.000000" stroke="none" 
	d="
M443.859711,343.564758 
	C403.251770,343.933716 362.464783,344.039948 321.677765,344.098206 
	C296.368561,344.134338 271.059235,344.097656 245.168152,343.748962 
	C244.572510,343.175415 244.558670,342.946533 244.544846,342.717682 
	C253.700272,342.796967 262.855652,342.937622 272.011139,342.944733 
	C307.815613,342.972534 343.620117,342.961639 379.424591,342.948792 
	C381.180786,342.948181 382.936951,342.793274 385.404419,342.676544 
	C380.227295,333.133423 380.665558,324.275818 386.162689,315.903839 
	C389.416809,310.947876 394.751373,310.080261 400.685028,309.999939 
	C406.362854,312.514221 412.127350,314.366669 416.740906,317.776428 
	C426.711731,325.145538 438.190674,331.118256 443.859711,343.564758 
z"/>
<path fill="#C7BAAE" opacity="1.000000" stroke="none" 
	d="
M113.264053,388.183533 
	C107.077507,376.883728 101.102623,365.702332 95.306496,354.429047 
	C93.741653,351.385468 92.844299,348.004547 91.389793,344.895782 
	C90.743790,343.515015 89.475258,342.425476 88.143204,341.053650 
	C88.164528,340.621674 88.531952,340.339783 89.251816,339.978821 
	C90.693512,340.718048 92.277046,341.300537 92.797150,342.390472 
	C99.506401,356.451080 106.064148,370.583954 112.660217,384.698578 
	C113.284233,384.557312 113.908249,384.416077 114.532265,384.274811 
	C114.788330,371.119049 115.044395,357.963257 115.661194,344.724762 
	C116.003532,359.219910 115.985138,373.797791 115.787346,388.843811 
	C114.919586,388.963806 114.231224,388.615631 113.264053,388.183533 
z"/>
<path fill="#C7BAAE" opacity="1.000000" stroke="none" 
	d="
M115.580032,390.987701 
	C115.825333,391.058014 115.920364,391.259613 115.934418,391.786285 
	C115.712212,391.780579 115.570992,391.449768 115.580032,390.987701 
z"/>
<path fill="#F2F6F6" opacity="1.000000" stroke="none" 
	d="
M245.466675,196.448242 
	C264.379944,179.673019 291.565552,182.248856 306.568970,199.358215 
	C317.164856,211.441360 320.653351,225.444885 315.487549,241.014526 
	C310.231689,256.855347 299.294708,266.745819 282.959747,269.925964 
	C259.358826,274.520721 237.806290,260.603149 232.755325,237.101868 
	C229.440094,221.676758 233.471420,207.815140 245.466675,196.448242 
M265.121490,230.044754 
	C263.767548,230.640213 262.296204,231.058075 261.079987,231.861923 
	C255.885849,235.294952 254.174011,241.717758 256.594574,248.212463 
	C258.492462,253.304733 263.939270,256.121704 270.477753,255.392609 
	C276.668182,254.702316 280.935211,250.345413 282.028168,243.598801 
	C282.934082,238.006866 279.992218,232.726547 274.239136,230.767502 
	C271.688171,229.898834 268.737976,230.202438 265.121490,230.044754 
z"/>
<path fill="#F3F6F6" opacity="1.000000" stroke="none" 
	d="
M104.589561,236.655472 
	C116.597916,215.463699 147.503128,210.208527 165.987213,225.336288 
	C185.381241,241.208755 187.631653,269.960571 168.854233,288.187775 
	C156.573517,300.108643 139.264343,303.642517 122.627693,295.632019 
	C99.787285,284.634491 92.157875,259.235382 104.589561,236.655472 
M129.353226,262.863800 
	C122.654770,270.919067 126.332733,281.830261 136.458725,283.943268 
	C142.953171,285.298462 147.932785,283.288055 150.419327,278.306976 
	C153.317719,272.500854 152.364975,268.344299 146.236816,263.710083 
	C141.267319,259.952057 135.650253,259.424500 129.353226,262.863800 
z"/>
<path fill="#FAB98B" opacity="1.000000" stroke="none" 
	d="
M239.258667,283.968628 
	C245.685120,283.657135 252.111252,283.338562 258.538666,283.048523 
	C259.021942,283.026703 259.532715,283.152130 259.999878,283.303986 
	C271.298798,286.976379 277.522339,305.520996 271.825989,315.810791 
	C265.304138,327.591797 255.163910,327.902832 243.339081,326.405945 
	C241.218124,325.813660 239.761429,325.410065 237.901001,324.938080 
	C232.699890,322.163391 227.745163,322.523193 222.356781,324.117188 
	C220.641617,324.454956 219.297043,324.787323 217.604309,325.138275 
	C212.636490,328.205109 208.016830,331.253418 203.176804,334.465881 
	C202.245148,335.371887 201.533859,336.113739 200.482605,336.885864 
	C199.464600,336.995056 198.786530,337.073975 197.759338,337.126556 
	C195.947693,338.070099 194.485184,339.039978 193.015182,340.007812 
	C193.007690,340.005798 193.000610,340.023773 192.568314,340.004395 
	C190.509140,340.242096 188.885025,340.518280 187.254913,340.752747 
	C181.645981,341.559601 176.143265,341.304443 171.861526,337.115234 
	C161.271622,326.754120 165.461334,306.923889 177.090714,301.746216 
	C180.925537,300.038849 185.390991,299.747894 189.814590,299.012848 
	C193.952759,301.145905 197.790405,304.533936 201.748062,304.680450 
	C208.550430,304.932312 215.577835,303.762726 222.237106,302.096222 
	C231.485123,299.781891 237.548523,293.732727 239.258667,283.968628 
z"/>
<path fill="#060607" opacity="1.000000" stroke="none" 
	d="
M239.165512,283.584595 
	C237.548523,293.732727 231.485123,299.781891 222.237106,302.096222 
	C215.577835,303.762726 208.550430,304.932312 201.748062,304.680450 
	C197.790405,304.533936 193.952759,301.145905 189.750137,298.725464 
	C189.121445,297.751312 188.803711,297.268127 188.485962,296.784943 
	C186.866287,286.805420 191.062332,279.441162 199.590469,274.970551 
	C207.104126,271.031738 214.758804,266.837097 224.019669,268.867004 
	C232.005737,270.617554 237.956467,275.935425 239.165512,283.584595 
z"/>
<path fill="#040A08" opacity="1.000000" stroke="none" 
	d="
M114.047668,174.141983 
	C114.047668,174.141983 114.288414,174.258209 114.701614,174.463074 
	C118.080368,175.445694 121.045914,176.223450 124.011467,177.001205 
	C131.590988,181.742691 139.108246,186.587616 146.766373,191.198547 
	C155.603745,196.519470 165.093933,197.547028 174.909973,194.508026 
	C179.462021,193.098755 180.843826,195.806046 182.083923,199.526733 
	C180.624756,204.707901 176.607574,205.598267 172.346222,205.961411 
	C157.691177,207.210297 144.486160,203.997299 133.028503,194.136292 
	C129.363510,190.982025 124.659767,188.892242 120.186989,186.850662 
	C112.467087,183.326920 104.539268,183.144089 96.306915,186.751923 
	C90.967087,184.397995 90.682434,181.388016 95.417480,178.436844 
	C98.199219,176.703049 101.340034,175.545364 105.115555,174.079346 
	C108.623741,174.067413 111.335701,174.104706 114.047668,174.141983 
z"/>
<path fill="#050B07" opacity="1.000000" stroke="none" 
	d="
M269.114868,156.680405 
	C266.736176,159.944992 264.493805,162.908234 262.127747,166.161957 
	C257.062347,171.823944 251.893539,177.006607 247.231674,182.610962 
	C240.120117,191.160233 230.886734,194.897568 220.137253,194.930466 
	C217.399689,194.938858 214.655975,192.937515 211.557648,191.754669 
	C210.120728,190.044159 209.205246,188.291550 207.926361,186.864655 
	C205.538223,184.200165 205.864868,181.656387 208.215820,179.435959 
	C210.512253,177.267014 212.967484,177.598221 215.267212,179.811295 
	C217.150314,181.623428 219.543945,185.000717 221.092957,184.681717 
	C226.292328,183.611008 232.715958,182.577850 235.968536,179.043396 
	C246.701431,167.380341 256.243286,154.621902 266.268097,142.304916 
	C266.869751,141.565643 267.695709,141.008896 269.108368,140.206085 
	C270.871277,140.039841 271.943146,140.034714 273.014984,140.029587 
	C277.227936,142.156036 277.930847,145.218155 274.948120,149.444870 
	C273.996857,150.171539 273.538666,150.584656 273.080475,150.997772 
	C271.804047,152.791534 270.527588,154.585297 269.114868,156.680405 
z"/>
<path fill="#C7BAAE" opacity="1.000000" stroke="none" 
	d="
M188.040558,296.842896 
	C188.803711,297.268127 189.121445,297.751312 189.503632,298.521912 
	C185.390991,299.747894 180.925537,300.038849 177.090714,301.746216 
	C165.461334,306.923889 161.271622,326.754120 171.861526,337.115234 
	C176.143265,341.304443 181.645981,341.559601 187.254913,340.752747 
	C188.885025,340.518280 190.509140,340.242096 192.380463,340.287109 
	C192.775696,341.381592 192.903534,342.858459 193.080704,342.864441 
	C196.066910,342.964569 199.059235,342.881561 202.215912,343.094421 
	C202.423965,343.548096 202.466354,343.746490 202.508728,343.944824 
	C174.384079,344.009399 146.259445,344.073944 117.709198,344.023682 
	C118.969643,343.571045 120.654381,342.947815 122.341965,342.940002 
	C137.629745,342.869202 152.918045,342.913452 168.206177,342.901184 
	C169.956940,342.899780 171.707596,342.758270 174.003647,342.657898 
	C171.311401,339.595764 168.726135,337.289459 166.912659,334.484222 
	C158.505676,321.479462 164.618256,297.912537 188.040558,296.842896 
z"/>
<path fill="#283136" opacity="1.000000" stroke="none" 
	d="
M238.304749,325.006470 
	C239.761429,325.410065 241.218124,325.813660 242.739990,326.319824 
	C243.307907,331.621277 243.810638,336.820099 244.429108,342.368286 
	C244.558670,342.946533 244.572510,343.175415 244.686310,343.733276 
	C243.649933,343.989105 242.513626,343.915894 241.128571,343.395721 
	C240.021484,336.967987 239.163116,330.987244 238.304749,325.006470 
z"/>
<path fill="#FBECEB" opacity="1.000000" stroke="none" 
	d="
M229.032867,408.019043 
	C222.207352,407.848206 217.884399,404.105499 217.101517,398.066772 
	C216.435989,392.933258 219.780945,387.544800 225.273270,385.992432 
	C229.836105,384.702728 234.612747,384.169464 239.436905,383.274719 
	C240.098328,378.818909 236.762955,376.408356 230.529144,377.357361 
	C226.971802,377.898926 223.424713,378.507721 219.435272,379.157562 
	C219.296005,377.117371 219.187714,375.530731 218.998856,372.764038 
	C225.272736,372.531433 231.324249,371.914948 237.331772,372.206238 
	C242.292313,372.446747 246.656570,377.390900 246.850891,382.666992 
	C247.143768,390.618958 246.927231,398.589661 246.927231,407.888245 
	C240.605331,404.106934 235.191360,407.865234 229.032867,408.019043 
M240.115753,392.536163 
	C239.742340,391.703156 239.247696,390.111938 239.013474,390.149384 
	C234.580841,390.858246 229.742996,390.902100 225.892471,392.860138 
	C221.989807,394.844666 223.337143,400.558533 227.554047,402.085938 
	C234.316025,404.535217 240.090347,400.561218 240.115753,392.536163 
z"/>
<path fill="#FDF0EE" opacity="1.000000" stroke="none" 
	d="
M430.178680,402.481110 
	C426.721710,393.465210 430.678375,386.372742 439.628815,385.015381 
	C443.655731,384.404633 447.715240,384.009186 452.714783,383.399658 
	C447.424347,373.623077 439.207855,379.046997 432.252197,378.762512 
	C432.252197,376.950226 432.252197,375.345245 432.252197,372.492676 
	C437.918793,372.358032 443.637726,371.817200 449.291138,372.212738 
	C454.025787,372.543945 457.856384,376.976898 457.946503,381.507721 
	C458.111450,389.801910 457.993469,398.101776 457.993469,407.384888 
	C455.393768,406.729919 453.346771,406.214172 450.158783,405.410980 
	C442.081573,410.091095 434.475830,409.469116 430.178680,402.481110 
M452.012787,394.452637 
	C452.012787,392.816406 452.012787,391.180206 452.012787,389.108368 
	C447.318115,390.008026 442.953430,390.445465 438.863495,391.746521 
	C435.172852,392.920502 434.108673,397.842438 436.695099,400.417206 
	C439.411926,403.121796 442.970795,403.117035 446.169769,401.825653 
	C448.954590,400.701477 452.926788,400.010803 452.012787,394.452637 
z"/>
<path fill="#FCEEED" opacity="1.000000" stroke="none" 
	d="
M184.743393,401.122864 
	C184.842575,402.903748 184.941757,404.684570 185.110123,407.707367 
	C182.166199,406.809479 179.933212,405.999390 177.632767,405.499603 
	C176.867966,405.333405 175.946442,406.103912 175.068588,406.206207 
	C170.754990,406.708984 166.207611,408.177307 162.170181,407.311523 
	C157.333221,406.274292 155.019241,401.810333 155.036453,396.688690 
	C155.052963,391.777039 157.144150,387.726959 161.885071,386.295013 
	C167.004883,384.748596 172.422516,384.188232 177.728653,383.194275 
	C177.030472,377.976532 177.030472,377.976532 158.293732,378.709290 
	C158.184784,377.122284 158.075027,375.523376 157.867020,372.493225 
	C164.139252,372.396698 170.207947,371.670074 176.086990,372.423401 
	C180.393631,372.975250 183.985245,375.882355 183.947906,381.967529 
	C183.598068,388.594727 183.300888,394.415253 183.124847,400.239410 
	C183.116440,400.517334 184.179367,400.827637 184.743393,401.122864 
M163.326218,392.977844 
	C163.119293,395.411133 161.909348,398.536591 162.980057,400.088257 
	C164.110947,401.727112 167.812729,403.073914 169.702866,402.452789 
	C178.334625,399.616364 179.074951,400.329224 177.329056,388.955048 
	C172.780090,390.131134 168.352829,391.275787 163.326218,392.977844 
z"/>
<path fill="#FDEEEE" opacity="1.000000" stroke="none" 
	d="
M122.004555,388.998993 
	C122.024773,380.186493 122.042564,371.873627 122.076706,363.560822 
	C122.077980,363.252716 122.238625,362.945251 122.437065,362.238098 
	C128.568024,362.238098 134.890945,361.621613 141.038284,362.397034 
	C148.418716,363.327942 152.531998,369.353363 151.926514,376.576050 
	C151.300110,384.048553 145.574356,389.569427 137.877594,389.958710 
	C134.769104,390.115906 131.646011,389.984589 128.163177,389.984589 
	C128.163177,395.722656 128.163177,400.985565 128.163177,406.748322 
	C126.095322,406.850586 124.370659,406.935883 122.004890,407.052917 
	C122.004890,401.025238 122.004890,395.261963 122.004555,388.998993 
M140.453018,383.265961 
	C144.947403,381.033356 145.687119,377.226074 144.500961,372.883575 
	C143.302460,368.495880 137.759644,366.110168 128.304092,367.651459 
	C128.304092,373.353241 128.304092,379.053070 128.304092,385.352173 
	C132.390366,384.773621 136.086029,384.250336 140.453018,383.265961 
z"/>
<path fill="#FCEBEB" opacity="1.000000" stroke="none" 
	d="
M295.844147,405.349060 
	C288.809387,399.743713 286.698730,389.140717 290.720764,380.813721 
	C294.113525,373.789551 301.896790,370.370422 310.461304,372.141876 
	C317.242523,373.544495 320.838928,380.433685 319.461884,389.851746 
	C311.596954,389.851746 303.669281,389.851746 295.714264,389.851746 
	C296.779572,402.652039 302.843445,404.997681 319.084473,399.246124 
	C320.691101,404.906464 319.508179,407.140076 312.948944,407.789276 
	C307.322845,408.346069 301.349487,409.207977 295.844147,405.349060 
M308.432709,377.931000 
	C301.168976,376.385529 296.428894,379.327911 296.104614,385.998993 
	C301.067932,385.998993 306.021729,386.015045 310.975220,385.984802 
	C311.913971,385.979095 312.851593,385.789703 315.611420,385.481842 
	C312.923157,382.366577 311.064331,380.212524 308.432709,377.931000 
z"/>
<path fill="#FCEBEC" opacity="1.000000" stroke="none" 
	d="
M345.408417,406.772552 
	C344.144318,404.283173 343.258179,401.991791 342.521484,400.086823 
	C348.681061,400.843353 353.902771,401.770874 359.147034,401.923553 
	C360.426422,401.960785 362.401428,399.672180 362.960114,398.070526 
	C363.906860,395.356354 361.587921,394.433777 359.374878,393.887726 
	C356.509827,393.180847 353.594269,392.640533 350.781799,391.766541 
	C345.231323,390.041748 342.769379,386.891296 343.068542,382.262726 
	C343.401733,377.108124 347.502197,372.668274 352.926697,372.105957 
	C356.050354,371.782104 359.282257,371.791534 362.392792,372.201691 
	C368.650177,373.026917 369.301941,374.097198 368.623199,380.702057 
	C365.365295,379.712219 362.169281,378.480682 358.859070,377.833954 
	C356.898956,377.451019 354.592560,377.561371 352.757477,378.268768 
	C351.538574,378.738647 350.047668,380.749298 350.177460,381.901428 
	C350.338776,383.333588 351.784058,385.248322 353.139679,385.788788 
	C356.002930,386.930359 359.234985,387.105621 362.196014,388.051971 
	C368.400513,390.034943 370.719238,393.457581 369.950104,398.951508 
	C369.306915,403.545471 364.666687,407.869751 359.551086,407.925201 
	C354.966858,407.974854 350.374908,407.316528 345.408417,406.772552 
z"/>
<path fill="#FCEEEC" opacity="1.000000" stroke="none" 
	d="
M422.543396,373.360718 
	C423.857880,375.720306 424.793671,377.894562 426.300568,381.395905 
	C418.191864,378.699799 411.275299,373.513153 405.631256,381.759979 
	C402.586517,386.208740 403.325806,396.271454 406.367737,399.754852 
	C409.238037,403.041687 414.541809,402.883179 424.409760,399.215637 
	C425.708740,405.573273 425.269287,406.331482 419.454315,407.765381 
	C409.320251,410.264435 401.194305,406.722717 398.024811,397.763275 
	C395.259003,389.944855 396.708405,378.303070 404.802399,373.927643 
	C410.421967,370.889801 416.295746,371.572662 422.543396,373.360718 
z"/>
<path fill="#FAECEC" opacity="1.000000" stroke="none" 
	d="
M194.429977,406.458740 
	C194.124084,395.189178 194.124084,384.275604 194.124084,372.953369 
	C197.186096,373.657013 201.349777,370.493195 201.138321,375.737091 
	C205.741806,374.552094 210.360352,373.363251 215.604309,372.013397 
	C215.604309,375.362091 215.604309,377.421509 215.604309,379.951904 
	C213.619125,379.661804 211.722092,379.029938 209.889252,379.180359 
	C203.229111,379.727051 200.939301,382.439392 200.939850,389.287048 
	C200.940308,395.059082 200.939941,400.831116 200.939941,406.814758 
	C198.617661,406.814758 196.676773,406.814758 194.429977,406.458740 
z"/>
<path fill="#FBEAEC" opacity="1.000000" stroke="none" 
	d="
M328.065002,386.999695 
	C328.064789,377.890594 328.064789,369.281342 328.064789,360.325500 
	C330.385559,360.325500 332.294159,360.325500 334.587646,360.325500 
	C334.587646,375.581604 334.587646,390.944000 334.587646,406.669861 
	C332.729095,406.669861 330.684662,406.669861 328.065186,406.669861 
	C328.065186,400.338684 328.065186,393.919128 328.065002,386.999695 
z"/>
<path fill="#FBEBEC" opacity="1.000000" stroke="none" 
	d="
M280.956238,402.825745 
	C281.634033,409.452271 277.103119,406.207977 274.375488,407.148895 
	C274.375488,391.427002 274.375488,376.069092 274.375488,360.345764 
	C276.349518,360.345764 278.258057,360.345764 280.953583,360.345764 
	C280.953583,374.245697 280.953583,388.295746 280.956238,402.825745 
z"/>
<path fill="#FAEAEC" opacity="1.000000" stroke="none" 
	d="
M262.789246,406.909424 
	C260.712585,406.987488 259.094391,406.987488 257.295044,406.987488 
	C257.295044,391.255493 257.295044,375.888489 257.295044,360.252197 
	C259.463318,360.252197 261.374359,360.252197 263.935120,360.252197 
	C263.935120,368.947235 264.022675,377.535004 263.907471,386.120117 
	C263.814850,393.025574 263.476868,399.927734 262.789246,406.909424 
z"/>
<path fill="#FDFCFB" opacity="1.000000" stroke="none" 
	d="
M474.789215,361.025604 
	C474.855316,375.709717 474.921417,390.393829 474.722595,405.625092 
	C474.231018,406.334106 474.077942,406.548553 473.998474,406.815521 
	C472.925293,406.867493 471.852142,406.919464 470.235168,406.690857 
	C469.220642,406.261108 468.749908,406.111969 468.196808,405.640625 
	C468.152649,404.879181 468.190857,404.439941 468.373291,403.905579 
	C468.418762,403.539917 468.320007,403.269409 468.152649,402.534912 
	C468.130768,388.724304 468.177521,375.377655 468.509888,361.986298 
	C469.202576,361.360870 469.609711,360.780151 470.016785,360.199463 
	C470.463806,360.146942 470.910858,360.094482 471.891876,360.332886 
	C473.213654,360.757690 474.001434,360.891632 474.789215,361.025604 
z"/>
<path fill="#F4EFEE" opacity="1.000000" stroke="none" 
	d="
M237.901001,324.938080 
	C239.163116,330.987244 240.021484,336.967987 240.820679,343.245728 
	C235.711182,343.668610 230.660858,343.794495 225.118561,343.388184 
	C224.343857,339.121490 224.119186,335.381378 223.758224,331.654419 
	C223.513779,329.130615 223.077744,326.625336 222.727386,324.111786 
	C227.745163,322.523193 232.699890,322.163391 237.901001,324.938080 
z"/>
<path fill="#FEFCFB" opacity="1.000000" stroke="none" 
	d="
M488.017151,406.831909 
	C487.565552,406.879852 487.113922,406.927765 486.243835,406.716370 
	C485.663940,406.233795 485.451508,406.081787 485.188110,406.000977 
	C485.138306,391.307831 485.088531,376.614685 485.311584,361.394104 
	C485.815430,360.717590 485.953552,360.507477 485.998810,360.236328 
	C487.063507,360.178314 488.128235,360.120300 489.622742,360.425232 
	C490.625763,361.201630 491.198944,361.615051 491.839996,362.490845 
	C491.865936,375.305115 491.824036,387.656982 491.543884,400.290344 
	C490.762939,402.949280 491.650238,406.077881 488.017151,406.831909 
z"/>
<path fill="#F3ECEA" opacity="1.000000" stroke="none" 
	d="
M203.397156,334.301727 
	C208.016830,331.253418 212.636490,328.205109 217.681763,325.534302 
	C219.063599,331.816986 220.019836,337.722198 220.976074,343.627411 
	C216.161819,343.719421 211.347549,343.811462 205.996735,343.402863 
	C204.772507,340.035400 204.084839,337.168579 203.397156,334.301727 
z"/>
<path fill="#2B2423" opacity="1.000000" stroke="none" 
	d="
M221.333038,343.773010 
	C220.019836,337.722198 219.063599,331.816986 218.029922,325.515747 
	C219.297043,324.787323 220.641617,324.454956 222.356781,324.117188 
	C223.077744,326.625336 223.513779,329.130615 223.758224,331.654419 
	C224.119186,335.381378 224.343857,339.121490 224.653915,343.231262 
	C223.684174,343.710541 222.687103,343.814575 221.333038,343.773010 
z"/>
<path fill="#C81918" opacity="1.000000" stroke="none" 
	d="
M468.229065,404.000702 
	C468.190857,404.439941 468.152649,404.879181 468.117401,405.870209 
	C468.120392,406.421997 468.133759,406.907501 468.133759,406.907501 
	C467.753845,405.886292 467.048370,404.866760 467.043152,403.843658 
	C466.972778,390.041351 466.993317,376.238556 467.023865,362.435944 
	C467.025269,361.803467 467.333801,361.171692 467.797089,360.632751 
	C468.138000,361.160919 468.181122,361.595978 468.224243,362.031006 
	C468.177521,375.377655 468.130768,388.724304 468.082031,402.785950 
	C468.129700,403.667542 468.179382,403.834106 468.229065,404.000702 
z"/>
<path fill="#C51912" opacity="1.000000" stroke="none" 
	d="
M491.782104,400.008881 
	C491.824036,387.656982 491.865936,375.305115 491.941864,362.222473 
	C492.034119,361.309448 492.092316,361.127136 492.150482,360.944855 
	C492.396240,361.368317 492.858643,361.792908 492.856445,362.215088 
	C492.779572,376.957458 492.658936,391.699615 492.254120,406.256714 
	C491.903168,404.050690 491.842651,402.029785 491.782104,400.008881 
z"/>
<path fill="#DDDADD" opacity="1.000000" stroke="none" 
	d="
M184.832947,400.652100 
	C184.179367,400.827637 183.116440,400.517334 183.124847,400.239410 
	C183.300888,394.415253 183.598068,388.594727 183.932465,382.353149 
	C184.303162,388.015625 184.612823,394.098480 184.832947,400.652100 
z"/>
<path fill="#292929" opacity="1.000000" stroke="none" 
	d="
M203.176788,334.465881 
	C204.084839,337.168579 204.772507,340.035400 205.589600,343.288788 
	C204.915329,343.796112 204.111633,343.916870 202.908325,343.991272 
	C202.466354,343.746490 202.423965,343.548096 202.255676,342.717194 
	C201.694016,340.341675 201.258301,338.598633 200.822571,336.855591 
	C201.533859,336.113739 202.245148,335.371887 203.176788,334.465881 
z"/>
<path fill="#FEE4E3" opacity="1.000000" stroke="none" 
	d="
M491.543854,400.290344 
	C491.842651,402.029785 491.903168,404.050690 491.913696,406.502289 
	C490.831665,406.961792 489.799683,406.990631 488.392426,406.925690 
	C491.650238,406.077881 490.762939,402.949280 491.543854,400.290344 
z"/>
<path fill="#FEE4E3" opacity="1.000000" stroke="none" 
	d="
M491.976440,360.674683 
	C492.092316,361.127136 492.034119,361.309448 491.874023,361.760101 
	C491.198944,361.615051 490.625763,361.201630 490.017029,360.502411 
	C490.588409,360.279266 491.195404,360.341888 491.976440,360.674683 
z"/>
<path fill="#FEE2E3" opacity="1.000000" stroke="none" 
	d="
M468.509857,361.986298 
	C468.181122,361.595978 468.138000,361.160919 468.146698,360.398071 
	C468.608826,360.050934 469.019196,360.031555 469.723175,360.105835 
	C469.609711,360.780151 469.202576,361.360870 468.509857,361.986298 
z"/>
<path fill="#FEE2E3" opacity="1.000000" stroke="none" 
	d="
M474.753906,360.678345 
	C474.001434,360.891632 473.213654,360.757690 472.224731,360.398041 
	C472.921936,360.225281 473.820251,360.278198 474.753906,360.678345 
z"/>
<path fill="#FEE2E3" opacity="1.000000" stroke="none" 
	d="
M468.444824,406.938477 
	C468.133759,406.907501 468.120392,406.421997 468.199799,406.192413 
	C468.749908,406.111969 469.220642,406.261108 469.837616,406.616455 
	C469.574554,406.871613 469.165192,406.920532 468.444824,406.938477 
z"/>
<path fill="#FEE4E3" opacity="1.000000" stroke="none" 
	d="
M485.746643,360.180237 
	C485.953552,360.507477 485.815430,360.717590 485.403137,360.933472 
	C485.312744,360.708252 485.403595,360.416229 485.746643,360.180237 
z"/>
<path fill="#FEE2E3" opacity="1.000000" stroke="none" 
	d="
M474.262573,406.864563 
	C474.077942,406.548553 474.231018,406.334106 474.639221,406.087280 
	C474.722748,406.306091 474.624725,406.609863 474.262573,406.864563 
z"/>
<path fill="#FEE4E3" opacity="1.000000" stroke="none" 
	d="
M485.142242,406.263123 
	C485.451508,406.081787 485.663940,406.233795 485.910950,406.636353 
	C485.696503,406.718872 485.396423,406.622101 485.142242,406.263123 
z"/>
<path fill="#DFCAA0" opacity="1.000000" stroke="none" 
	d="
M108.219788,157.821762 
	C109.195534,146.895615 104.066025,137.994614 99.350311,128.647736 
	C111.685165,127.928535 124.116257,127.527687 136.545593,127.078354 
	C155.312683,126.399918 174.122635,126.233589 192.823380,124.722977 
	C200.380096,124.112556 207.793564,120.808037 215.100525,118.240837 
	C226.202972,114.340157 237.278137,110.307831 248.140381,105.791473 
	C260.938049,100.470413 273.496307,94.573433 286.505798,88.902199 
	C283.070282,99.678932 279.180298,110.444275 275.592010,121.309242 
	C274.847626,123.563171 275.222504,126.186760 274.860260,129.310638 
	C274.124634,130.665054 273.610291,131.348816 273.095947,132.032578 
	C246.451141,144.322769 218.615601,152.985519 190.047302,159.478531 
	C169.439728,164.162231 148.563629,164.928665 127.570305,164.121750 
	C123.440521,163.963013 119.197868,163.751877 115.260902,162.654755 
	C112.786957,161.965347 110.785728,159.579605 108.219788,157.821762 
z"/>
<path fill="#637F36" opacity="1.000000" stroke="none" 
	d="
M123.942215,176.631561 
	C121.045914,176.223450 118.080368,175.445694 114.820908,174.402786 
	C117.642319,174.845718 120.757645,175.553818 123.942215,176.631561 
z"/>
<path fill="#637F36" opacity="1.000000" stroke="none" 
	d="
M113.789124,173.826447 
	C111.335701,174.104706 108.623741,174.067413 105.464966,173.981232 
	C107.855637,173.791870 110.693100,173.651398 113.789124,173.826447 
z"/>
<path fill="#628C20" opacity="1.000000" stroke="none" 
	d="
M273.514343,132.021942 
	C273.610291,131.348816 274.124634,130.665054 274.842224,129.723663 
	C275.753632,129.994232 276.461792,130.522430 277.236084,131.375900 
	C276.179047,131.804550 275.055908,131.907928 273.514343,132.021942 
z"/>
<path fill="#628C20" opacity="1.000000" stroke="none" 
	d="
M272.806183,139.762665 
	C271.943146,140.034714 270.871277,140.039841 269.398071,140.026428 
	C270.196930,139.837158 271.397156,139.666443 272.806183,139.762665 
z"/>
<path fill="#628C20" opacity="1.000000" stroke="none" 
	d="
M273.399078,150.963562 
	C273.538666,150.584656 273.996857,150.171539 274.785095,149.738159 
	C274.649323,150.121704 274.183502,150.525528 273.399078,150.963562 
z"/>
<path fill="#0A252C" opacity="1.000000" stroke="none" 
	d="
M309.587708,93.626572 
	C311.482758,91.291222 312.992462,89.020203 314.994324,87.333199 
	C318.452209,84.419174 322.348572,82.863129 326.842743,85.602829 
	C322.499390,87.171165 318.241638,88.708595 313.279144,90.500511 
	C316.754700,93.041534 318.914459,94.620575 321.928040,96.823822 
	C309.703644,96.349594 309.722107,96.351173 308.679291,108.532776 
	C308.564178,109.878036 308.088348,111.192429 306.842499,112.366531 
	C303.774017,105.706856 306.378113,99.802475 309.587708,93.626572 
z"/>
<path fill="#0A232C" opacity="1.000000" stroke="none" 
	d="
M83.764557,140.282104 
	C86.645927,144.971710 89.128288,149.421066 86.962166,155.441467 
	C85.037132,150.579956 83.112099,145.718445 81.187065,140.856934 
	C80.524796,140.895187 79.862518,140.933441 79.200249,140.971695 
	C78.192047,144.568802 77.183853,148.165909 76.178268,151.753708 
	C73.163048,149.203995 73.163048,149.203995 77.276505,137.657639 
	C74.550308,137.455414 72.100967,137.393631 69.691406,137.051605 
	C68.160889,136.834335 66.632217,136.320816 65.237640,135.656799 
	C64.941856,135.515961 65.018890,133.535416 65.288307,133.440948 
	C66.714867,132.940704 68.439102,132.189758 69.728195,132.591339 
	C74.767014,134.161041 80.483421,134.660797 83.764557,140.282104 
z"/>
<path fill="#080808" opacity="1.000000" stroke="none" 
	d="
M265.545258,230.009338 
	C268.737976,230.202438 271.688171,229.898834 274.239136,230.767502 
	C279.992218,232.726547 282.934082,238.006866 282.028168,243.598801 
	C280.935211,250.345413 276.668182,254.702316 270.477753,255.392609 
	C263.939270,256.121704 258.492462,253.304733 256.594574,248.212463 
	C254.174011,241.717758 255.885849,235.294952 261.079987,231.861923 
	C262.296204,231.058075 263.767548,230.640213 265.545258,230.009338 
z"/>
<path fill="#070707" opacity="1.000000" stroke="none" 
	d="
M129.646667,262.621521 
	C135.650253,259.424500 141.267319,259.952057 146.236816,263.710083 
	C152.364975,268.344299 153.317719,272.500854 150.419327,278.306976 
	C147.932785,283.288055 142.953171,285.298462 136.458725,283.943268 
	C126.332733,281.830261 122.654770,270.919067 129.646667,262.621521 
z"/>
<path fill="#8BBDC6" opacity="1.000000" stroke="none" 
	d="
M200.482620,336.885864 
	C201.258301,338.598633 201.694016,340.341675 202.089981,342.461945 
	C199.059235,342.881561 196.066910,342.964569 193.080704,342.864441 
	C192.903534,342.858459 192.775696,341.381592 192.812759,340.306488 
	C193.000610,340.023773 193.007690,340.005798 193.375946,340.011719 
	C195.198975,339.062775 196.653732,338.107849 198.108475,337.152893 
	C198.786530,337.073975 199.464600,336.995056 200.482620,336.885864 
z"/>
<path fill="#C7BAAE" opacity="1.000000" stroke="none" 
	d="
M197.759338,337.126587 
	C196.653732,338.107849 195.198975,339.062775 193.383453,340.013763 
	C194.485184,339.039978 195.947693,338.070099 197.759338,337.126587 
z"/>
<path fill="#E70D0E" opacity="1.000000" stroke="none" 
	d="
M240.112274,392.990845 
	C240.090347,400.561218 234.316025,404.535217 227.554047,402.085938 
	C223.337143,400.558533 221.989807,394.844666 225.892471,392.860138 
	C229.742996,390.902100 234.580841,390.858246 239.013474,390.149384 
	C239.247696,390.111938 239.742340,391.703156 240.112274,392.990845 
z"/>
<path fill="#EB0A0A" opacity="1.000000" stroke="none" 
	d="
M452.012756,394.881500 
	C452.926788,400.010803 448.954590,400.701477 446.169769,401.825653 
	C442.970795,403.117035 439.411926,403.121796 436.695099,400.417206 
	C434.108673,397.842438 435.172852,392.920502 438.863495,391.746521 
	C442.953430,390.445465 447.318115,390.008026 452.012787,389.108368 
	C452.012787,391.180206 452.012787,392.816406 452.012756,394.881500 
z"/>
<path fill="#E80B0C" opacity="1.000000" stroke="none" 
	d="
M163.625885,392.699127 
	C168.352829,391.275787 172.780090,390.131134 177.329056,388.955048 
	C179.074951,400.329224 178.334625,399.616364 169.702866,402.452789 
	C167.812729,403.073914 164.110947,401.727112 162.980057,400.088257 
	C161.909348,398.536591 163.119293,395.411133 163.625885,392.699127 
z"/>
<path fill="#EE0909" opacity="1.000000" stroke="none" 
	d="
M140.117340,383.496521 
	C136.086029,384.250336 132.390366,384.773621 128.304092,385.352173 
	C128.304092,379.053070 128.304092,373.353241 128.304092,367.651459 
	C137.759644,366.110168 143.302460,368.495880 144.500961,372.883575 
	C145.687119,377.226074 144.947403,381.033356 140.117340,383.496521 
z"/>
<path fill="#E20E0E" opacity="1.000000" stroke="none" 
	d="
M308.819122,377.994751 
	C311.064331,380.212524 312.923157,382.366577 315.611420,385.481842 
	C312.851593,385.789703 311.913971,385.979095 310.975220,385.984802 
	C306.021729,386.015045 301.067932,385.998993 296.104614,385.998993 
	C296.428894,379.327911 301.168976,376.385529 308.819122,377.994751 
z"/>
<path fill="#FEE2E3" opacity="1.000000" stroke="none" 
	d="
M468.373291,403.905579 
	C468.179382,403.834106 468.129700,403.667542 468.150635,403.249939 
	C468.320007,403.269409 468.418762,403.539917 468.373291,403.905579 
z"/>
</svg>